<svg xmlns="http://www.w3.org/2000/svg" viewBox="0 0 64 64">
  <defs>
    <linearGradient id="g" x1="0" y1="0" x2="1" y2="1">
      <stop offset="0%" stop-color="#ff6a00"/>
      <stop offset="100%" stop-color="#ffb347"/>
    </linearGradient>
  </defs>
  <rect width="64" height="64" rx="14" fill="#07070b"/>
  <path d="M16 48V16h9.5c5.5 0 9 2.6 9 7.2 0 3.4-2 5.7-5.2 6.4l6.7 9.4c1 1.4.1 3-1.6 3h-3.2c-1 0-1.7-.4-2.2-1.2l-5.2-7.8H25V46c0 1.1-.9 2-2 2h-5c-1.1 0-2-.9-2-2Zm9-15.5h0c2.8 0 4.4-1.2 4.4-3.2S27.8 26 25 26h0v6.5Z" fill="url(#g)"/>
  <path d="M40 48V22c0-1 .8-1.8 1.8-1.8h3.6c1 0 1.8.8 1.8 1.8v18h6.4c.9 0 1.6.7 1.6 1.6V46c0 1.1-.9 2-2 2H42c-1.1 0-2-.9-2-2Z" fill="#f4f1ea"/>
  <circle cx="49" cy="16" r="3.2" fill="#ff6a00"/>
</svg>
